# xmcd CD database file
#
# Track frame offsets:
#	183
#	31475
#	52890
#	85088
#	109663
#	127683
#	149180
#	170185
#	189320
#
# Disc length: 3055 seconds
#
# Revision: 0
# Processed by: cddbd v1.4PL0 Copyright (c) Steve Scherf et al.
# Submitted via: CDex 1.50
#
DISCID=770bed09
DTITLE=Gino Lattuca Quartet (Gino Lattuca Trumpet, Michel Herr Piano, Michel Hadzigiorgiu Bass, Mimi Verdame Drums) - My Impression
DYEAR=1992
DGENRE=Jazz
TTITLE0=Ups and down
TTITLE1=Cocoa para voce
TTITLE2=My impression
TTITLE3=The peacocks
TTITLE4=Family blues
TTITLE5=Last pleasure
TTITLE6=In the street
TTITLE7=Song from your father
TTITLE8=You don't know what love is
EXTD=YEAR: 1992
EXTT0=
EXTT1=
EXTT2=
EXTT3=
EXTT4=
EXTT5=
EXTT6=
EXTT7=
EXTT8=
PLAYORDER=
